<mxfile host="Electron" agent="Mozilla/5.0 (Windows NT 10.0; Win64; x64) AppleWebKit/537.36 (KHTML, like Gecko) draw.io/28.0.6 Chrome/138.0.7204.100 Electron/37.2.3 Safari/537.36" version="28.0.6">
  <diagram name="Page-1" id="emVeJjCWPu2Gr0CqDtXu">
    <mxGraphModel dx="1178" dy="889" grid="1" gridSize="10" guides="1" tooltips="1" connect="1" arrows="1" fold="1" page="1" pageScale="1" pageWidth="850" pageHeight="1100" math="0" shadow="0">
      <root>
        <mxCell id="0" />
        <mxCell id="1" parent="0" />
        <mxCell id="dDA_K_qWxvXukU3VSu6O-18" value="" style="shape=mxgraph.cisco.routers.gigabit_switch_atm_tag_router;sketch=0;html=1;pointerEvents=1;dashed=0;fillColor=#036897;strokeColor=#ffffff;strokeWidth=2;verticalLabelPosition=bottom;verticalAlign=top;align=center;outlineConnect=0;" vertex="1" parent="1">
          <mxGeometry x="320" y="656" width="78" height="78" as="geometry" />
        </mxCell>
        <mxCell id="dDA_K_qWxvXukU3VSu6O-10" value="" style="rounded=1;whiteSpace=wrap;html=1;rotation=-90;" vertex="1" parent="1">
          <mxGeometry x="-99" y="520" width="480" height="210" as="geometry" />
        </mxCell>
        <mxCell id="dDA_K_qWxvXukU3VSu6O-1" value="Cloud&#xa;Run" style="sketch=0;html=1;verticalAlign=top;labelPosition=center;verticalLabelPosition=bottom;align=center;spacingTop=-6;fontSize=11;fontStyle=1;fontColor=#999999;shape=image;aspect=fixed;imageAspect=0;image=data:image/svg+xml,PHN2ZyB4bWxucz0iaHR0cDovL3d3dy53My5vcmcvMjAwMC9zdmciIHhtbG5zOnY9Imh0dHBzOi8vdmVjdGEuaW8vbmFubyIgd2lkdGg9IjM2NS40NjQ5OTY3NzA0MjQ5MyIgaGVpZ2h0PSIzNzkuMjIyOTk0NDYzNTc3OTUiIHZpZXdCb3g9IjAgMCA5Ni42OTU5OTkxNDU1MDc4MSAxMDAuMzM1OTk4NTM1MTU2MjUiPiYjeGE7PHN0eWxlIHR5cGU9InRleHQvY3NzIj4mI3hhOwkuc3Qwe2ZpbGw6IzQyODVmNDt9JiN4YTsJLnN0MXtmaWxsOiNhZWNiZmE7fSYjeGE7PC9zdHlsZT4mI3hhOwk8cGF0aCBjbGFzcz0ic3QwIiBkPSJNMjkuNzk0IDEwMC4zMzZMNDYuOTIgNTAuMTY4aDQ5Ljc3NnpNMCA5OS42NzFsMTIuOTc2LTQ5LjUwMkgyOS4yMkwxNi44OTcgOTIuMDU0eiIvPiYjeGE7CTxwYXRoIGNsYXNzPSJzdDEiIGQ9Ik0yOS43OTQgMEw0Ni45MiA1MC4xNjhoNDkuNzc2ek0wIC42NjZsMTIuOTc2IDQ5LjUwMkgyOS4yMkwxNi44OTcgOC4yODN6Ii8+JiN4YTs8L3N2Zz4=;" vertex="1" parent="1">
          <mxGeometry x="120" y="760" width="42" height="42" as="geometry" />
        </mxCell>
        <mxCell id="dDA_K_qWxvXukU3VSu6O-2" value="Cloud External&#xa;IP Addresses" style="sketch=0;html=1;verticalAlign=top;labelPosition=center;verticalLabelPosition=bottom;align=center;spacingTop=-6;fontSize=11;fontStyle=1;fontColor=#999999;shape=image;aspect=fixed;imageAspect=0;image=data:image/svg+xml,PHN2ZyB4bWxucz0iaHR0cDovL3d3dy53My5vcmcvMjAwMC9zdmciIHhtbG5zOnY9Imh0dHBzOi8vdmVjdGEuaW8vbmFubyIgd2lkdGg9IjE5Ljk5OTk5ODA5MjY1MTM2NyIgaGVpZ2h0PSIyMCIgdmlld0JveD0iMCAtMi44NDIxNzA1NjE4NzU1NzQ1ZS0xNSAxOS45OTk5OTgwOTI2NTEzNjcgMjAiPiYjeGE7CTxzdHlsZSB0eXBlPSJ0ZXh0L2NzcyI+JiN4YTsJLnN0MHtmaWxsOiM0Mjg1ZjQ7fSYjeGE7CS5zdDF7ZmlsbDojNjY5ZGY2O30mI3hhOwk8L3N0eWxlPiYjeGE7CTxwYXRoIGNsYXNzPSJzdDEiIGQ9Ik0xNS40OSAxMC40djYuN2EuNC40IDAgMCAxLS40LjRIMi45YS40LjQgMCAwIDEtLjQtLjRWNC45YS40LjQgMCAwIDEgLjQtLjRoNi43YS40LjQgMCAwIDAgLjQtLjRWMi40YS40LjQgMCAwIDAtLjQtLjRILjRhLjQuNCAwIDAgMC0uNC40djE3LjJhLjQuNCAwIDAgMCAuNC40aDE3LjJhLjQuNCAwIDAgMCAuNC0uNHYtOS4yYS40LjQgMCAwIDAtLjQtLjRoLTEuNzFhLjQuNCAwIDAgMC0uNC40eiIvPiYjeGE7CTxwYXRoIGNsYXNzPSJzdDAiIGQ9Ik0xMiAuNHY3LjJhLjQuNCAwIDAgMCAuNC40aDcuMmEuNC40IDAgMCAwIC40LS40Vi40YS40LjQgMCAwIDAtLjQtLjRoLTcuMmEuNC40IDAgMCAwLS40LjR6bTUuNiA0LjFoLTEuNzFhLjQuNCAwIDAgMS0uNC0uNFYyLjRhLjQuNCAwIDAgMSAuNC0uNGgxLjcxYS40LjQgMCAwIDEgLjQuNHYxLjdhLjQuNCAwIDAgMS0uNC40eiIvPiYjeGE7PC9zdmc+;" vertex="1" parent="1">
          <mxGeometry x="120" y="640" width="42" height="42" as="geometry" />
        </mxCell>
        <mxCell id="dDA_K_qWxvXukU3VSu6O-3" value="Cloud&#xa;DNS" style="sketch=0;html=1;verticalAlign=top;labelPosition=center;verticalLabelPosition=bottom;align=center;spacingTop=-6;fontSize=11;fontStyle=1;fontColor=#999999;shape=image;aspect=fixed;imageAspect=0;image=data:image/svg+xml,PHN2ZyB4bWxucz0iaHR0cDovL3d3dy53My5vcmcvMjAwMC9zdmciIHhtbG5zOnY9Imh0dHBzOi8vdmVjdGEuaW8vbmFubyIgd2lkdGg9IjIwIiBoZWlnaHQ9IjIwIiB2aWV3Qm94PSIwIDAgMjAgMjAiPiYjeGE7CTxzdHlsZSB0eXBlPSJ0ZXh0L2NzcyI+JiN4YTsJLnN0MHtmaWxsOiM0Mjg1ZjQ7fSYjeGE7CS5zdDF7ZmlsbDojNjY5ZGY2O30mI3hhOwkuc3Qye2ZpbGw6I2FlY2JmYTt9JiN4YTsJLnN0M3tmaWxsOiNmZmY7fSYjeGE7CTwvc3R5bGU+JiN4YTsJPHBhdGggY2xhc3M9InN0MCIgZD0iTTkgNmgydjEwSDl6Ii8+JiN4YTsJPHBhdGggY2xhc3M9InN0MSIgZD0iTTIwIDE3SDB2MmgyMHoiLz4mI3hhOwk8cGF0aCBjbGFzcz0ic3QyIiBkPSJNMTIgMTZIOHY0aDR6TTAgMGgyMHY2SDB6Ii8+JiN4YTsJPHBhdGggY2xhc3M9InN0MSIgZD0iTTEwIDBoMTB2NkgxMHoiLz4mI3hhOwk8cGF0aCBjbGFzcz0ic3QzIiBkPSJNMiAyaDJ2MkgyeiIvPiYjeGE7CTxwYXRoIGNsYXNzPSJzdDIiIGQ9Ik0wIDhoMjB2NkgweiIvPiYjeGE7CTxwYXRoIGNsYXNzPSJzdDEiIGQ9Ik0xMCA4aDEwdjZIMTB6Ii8+JiN4YTsJPHBhdGggY2xhc3M9InN0MyIgZD0iTTIgMTBoMnYySDJ6Ii8+JiN4YTs8L3N2Zz4=;" vertex="1" parent="1">
          <mxGeometry x="120" y="560" width="42" height="42" as="geometry" />
        </mxCell>
        <mxCell id="dDA_K_qWxvXukU3VSu6O-4" value="Migrate to&#xa;Containers" style="sketch=0;html=1;verticalAlign=top;labelPosition=center;verticalLabelPosition=bottom;align=center;spacingTop=-6;fontSize=11;fontStyle=1;fontColor=#999999;shape=image;aspect=fixed;imageAspect=0;image=data:image/svg+xml,PHN2ZyB4bWxucz0iaHR0cDovL3d3dy53My5vcmcvMjAwMC9zdmciIGlkPSJzdmc4MjciIHZlcnNpb249IjEuMSIgdmlld0JveD0iMCAwIDE1Ni4wODM1IDE0OS4wNjI3NCIgaGVpZ2h0PSIxNDkuMDYyNzRtbSIgd2lkdGg9IjE1Ni4wODM1bW0iPiYjeGE7ICAmI3hhOyAgPGRlZnMgaWQ9ImRlZnM4MjQiLz4mI3hhOyAgPGcgdHJhbnNmb3JtPSJ0cmFuc2xhdGUoLTI5LjAyNTYxNywtNzMuNDA2MzcyKSIgaWQ9ImxheWVyMSI+JiN4YTsgICAgPHBhdGggaWQ9InBhdGgxMDQxIiB0cmFuc2Zvcm09InNjYWxlKDAuMjY0NTgzMzMpIiBkPSJNIDQxNy42MDc0MiwyNzcuNDQxNDEgMjQxLjM0MTgsNTgxLjgxMjUgYSAxMjkuNTIxNSwxMjkuNTIxNSAwIDAgMCAtMi4xMTcxOSwtMC4wMjczIDEyOS41MjE1LDEyOS41MjE1IDAgMCAwIC0xMjkuNTIxNDksMTI5LjUyMTQ4IDEyOS41MjE1LDEyOS41MjE1IDAgMCAwIDEyOS41MjE0OSwxMjkuNTIxNDggMTI5LjUyMTUsMTI5LjUyMTUgMCAwIDAgMTE3LjQyMzgzLC03NC45OTQxNCBIIDY2MC4zNDc2NiA2OTkuNjI1IFoiIHN0eWxlPSJjb2xvcjojMDAwMDAwO29wYWNpdHk6MTtmaWxsOiM0Mjg1ZjQ7ZmlsbC1vcGFjaXR5OjE7c3Ryb2tlLXdpZHRoOjMuNzc5NTM7LWlua3NjYXBlLXN0cm9rZTpub25lIi8+JiN4YTsgICAgPHBhdGggdHJhbnNmb3JtPSJzY2FsZSgwLjI2NDU4MzMzKSIgZD0iTSA0MTcuNTU2NjQsMzY4LjAzOTA2IDI4OC4xOTkyMiw1OTEuNDA0MyBhIDEyOS41MjE1LDEyOS41MjE1IDAgMCAxIDMuNjQ2NDgsMS41NTg1OSBMIDQxOC4zNjEzMyw0NjYuMDc4MTIgNTUyLjU3MjI3LDYwMS44NTkzOCBaIG0gMC42NjQwNiwxNjIuNDE2MDIgLTg4LjIxNjc5LDg4LjQ3MjY1IGEgMTI5LjUyMTUsMTI5LjUyMTUgMCAwIDEgMTguMzc4OSwyMi42Njc5NyBsIDYwLjc2NTYzLC0yNi43NzM0MyA5LjE4MzU5LC00LjA0NDkzIDE0MS40MDIzNSw2Mi44NDU3MSB6IG0gLTE4MC45OTYwOSwxMDkuODM1OTQgLTIwLjA4NTk0LDIwLjAwMzkgNDEuMjIwNzEsNDEuMzkwNjMgaCAtOTMuNDQxNDEgdiAyOC4zNDU3IGggOTMuNjAzNTEgbCAtNDEuNzA3MDMsNDIuMTg3NSAyMC4xNTgyMSwxOS45MzE2NCA3NS40NjY3OSwtNzYuMzI4MTIgeiBNIDQxOC4yNSw2NjAuMzc2OTUgMzY1LjcyMDcsNjgzLjUxOTUzIGEgMTI5LjUyMTUsMTI5LjUyMTUgMCAwIDEgMy4wMjUzOSwyNy43ODcxMSAxMjkuNTIxNSwxMjkuNTIxNSAwIDAgMSAtMC4zNDE3OSw5LjE3MzgzIGggMTg1LjA4MjAzIHoiIHN0eWxlPSJjb2xvcjojMDAwMDAwO29wYWNpdHk6MTtmaWxsOiNmZmZmZmY7c3Ryb2tlLXdpZHRoOjMuNzc5NTM7LWlua3NjYXBlLXN0cm9rZTpub25lIiBpZD0icGF0aDQzMjciLz4mI3hhOyAgPC9nPiYjeGE7PC9zdmc+;" vertex="1" parent="1">
          <mxGeometry x="120" y="440" width="42" height="40" as="geometry" />
        </mxCell>
        <mxCell id="dDA_K_qWxvXukU3VSu6O-5" value="" style="fontColor=#0066CC;verticalAlign=top;verticalLabelPosition=bottom;labelPosition=center;align=center;html=1;outlineConnect=0;fillColor=#CCCCCC;strokeColor=#6881B3;gradientColor=none;gradientDirection=north;strokeWidth=2;shape=mxgraph.networks.web_server;" vertex="1" parent="1">
          <mxGeometry x="88.5" y="210" width="105" height="105" as="geometry" />
        </mxCell>
        <mxCell id="dDA_K_qWxvXukU3VSu6O-6" value="" style="html=1;outlineConnect=0;fillColor=#CCCCCC;strokeColor=#6881B3;gradientColor=none;gradientDirection=north;strokeWidth=2;shape=mxgraph.networks.cloud;fontColor=#ffffff;" vertex="1" parent="1">
          <mxGeometry x="520" y="430" width="90" height="50" as="geometry" />
        </mxCell>
        <mxCell id="dDA_K_qWxvXukU3VSu6O-7" value="" style="fontColor=#0066CC;verticalAlign=top;verticalLabelPosition=bottom;labelPosition=center;align=center;html=1;outlineConnect=0;fillColor=#CCCCCC;strokeColor=#6881B3;gradientColor=none;gradientDirection=north;strokeWidth=2;shape=mxgraph.networks.pc;" vertex="1" parent="1">
          <mxGeometry x="520" y="660" width="100" height="70" as="geometry" />
        </mxCell>
        <mxCell id="dDA_K_qWxvXukU3VSu6O-8" value="" style="fontColor=#0066CC;verticalAlign=top;verticalLabelPosition=bottom;labelPosition=center;align=center;html=1;outlineConnect=0;fillColor=#CCCCCC;strokeColor=#6881B3;gradientColor=none;gradientDirection=north;strokeWidth=2;shape=mxgraph.networks.users;" vertex="1" parent="1">
          <mxGeometry x="640" y="660" width="90" height="100" as="geometry" />
        </mxCell>
        <mxCell id="dDA_K_qWxvXukU3VSu6O-9" value="" style="fontColor=#0066CC;verticalAlign=top;verticalLabelPosition=bottom;labelPosition=center;align=center;html=1;outlineConnect=0;fillColor=#CCCCCC;strokeColor=#6881B3;gradientColor=none;gradientDirection=north;strokeWidth=2;shape=mxgraph.networks.server;" vertex="1" parent="1">
          <mxGeometry x="510" y="200" width="90" height="100" as="geometry" />
        </mxCell>
        <mxCell id="dDA_K_qWxvXukU3VSu6O-11" value="" style="endArrow=classic;startArrow=classic;html=1;rounded=0;exitX=1;exitY=0.5;exitDx=0;exitDy=0;" edge="1" parent="1" source="dDA_K_qWxvXukU3VSu6O-10" target="dDA_K_qWxvXukU3VSu6O-5">
          <mxGeometry width="50" height="50" relative="1" as="geometry">
            <mxPoint x="112" y="350" as="sourcePoint" />
            <mxPoint x="162" y="300" as="targetPoint" />
          </mxGeometry>
        </mxCell>
        <mxCell id="dDA_K_qWxvXukU3VSu6O-12" value="" style="endArrow=none;dashed=1;html=1;dashPattern=1 3;strokeWidth=2;rounded=0;" edge="1" parent="1" source="dDA_K_qWxvXukU3VSu6O-6" target="dDA_K_qWxvXukU3VSu6O-9">
          <mxGeometry width="50" height="50" relative="1" as="geometry">
            <mxPoint x="530" y="390" as="sourcePoint" />
            <mxPoint x="565" y="320" as="targetPoint" />
          </mxGeometry>
        </mxCell>
        <mxCell id="dDA_K_qWxvXukU3VSu6O-13" value="" style="endArrow=none;dashed=1;html=1;dashPattern=1 3;strokeWidth=2;rounded=0;entryX=0.5;entryY=1;entryDx=0;entryDy=0;entryPerimeter=0;exitX=0.5;exitY=0.07;exitDx=0;exitDy=0;exitPerimeter=0;" edge="1" parent="1" source="dDA_K_qWxvXukU3VSu6O-7" target="dDA_K_qWxvXukU3VSu6O-6">
          <mxGeometry width="50" height="50" relative="1" as="geometry">
            <mxPoint x="530" y="630" as="sourcePoint" />
            <mxPoint x="580" y="580" as="targetPoint" />
          </mxGeometry>
        </mxCell>
        <mxCell id="dDA_K_qWxvXukU3VSu6O-14" value="DNS Root Server" style="text;html=1;align=center;verticalAlign=middle;whiteSpace=wrap;rounded=0;" vertex="1" parent="1">
          <mxGeometry x="525" y="150" width="60" height="30" as="geometry" />
        </mxCell>
        <mxCell id="dDA_K_qWxvXukU3VSu6O-15" value="" style="endArrow=classic;startArrow=classic;html=1;rounded=0;entryX=0.88;entryY=0.5;entryDx=0;entryDy=0;entryPerimeter=0;exitX=0.5;exitY=0;exitDx=0;exitDy=0;exitPerimeter=0;" edge="1" parent="1" source="dDA_K_qWxvXukU3VSu6O-18" target="dDA_K_qWxvXukU3VSu6O-5">
          <mxGeometry width="50" height="50" relative="1" as="geometry">
            <mxPoint x="340" y="590" as="sourcePoint" />
            <mxPoint x="360" y="260" as="targetPoint" />
            <Array as="points">
              <mxPoint x="360" y="260" />
            </Array>
          </mxGeometry>
        </mxCell>
        <mxCell id="dDA_K_qWxvXukU3VSu6O-16" value="" style="endArrow=classic;startArrow=classic;html=1;rounded=0;entryX=0;entryY=0.5;entryDx=0;entryDy=0;entryPerimeter=0;" edge="1" parent="1" source="dDA_K_qWxvXukU3VSu6O-18" target="dDA_K_qWxvXukU3VSu6O-7">
          <mxGeometry width="50" height="50" relative="1" as="geometry">
            <mxPoint x="360" y="695" as="sourcePoint" />
            <mxPoint x="450" y="670" as="targetPoint" />
          </mxGeometry>
        </mxCell>
        <mxCell id="dDA_K_qWxvXukU3VSu6O-21" value="" style="endArrow=classic;startArrow=classic;html=1;rounded=0;entryX=0.5;entryY=1;entryDx=0;entryDy=0;entryPerimeter=0;exitX=0.169;exitY=1.014;exitDx=0;exitDy=0;exitPerimeter=0;" edge="1" parent="1" source="dDA_K_qWxvXukU3VSu6O-10" target="dDA_K_qWxvXukU3VSu6O-18">
          <mxGeometry width="50" height="50" relative="1" as="geometry">
            <mxPoint x="310" y="830" as="sourcePoint" />
            <mxPoint x="360" y="780" as="targetPoint" />
            <Array as="points">
              <mxPoint x="359" y="784" />
            </Array>
          </mxGeometry>
        </mxCell>
        <mxCell id="dDA_K_qWxvXukU3VSu6O-22" value="Before Migration&lt;div&gt;&lt;br&gt;&lt;/div&gt;" style="text;html=1;align=center;verticalAlign=middle;whiteSpace=wrap;rounded=0;" vertex="1" parent="1">
          <mxGeometry x="220" y="210" width="60" height="30" as="geometry" />
        </mxCell>
        <mxCell id="dDA_K_qWxvXukU3VSu6O-23" value="" style="endArrow=classic;startArrow=classic;html=1;rounded=0;" edge="1" parent="1">
          <mxGeometry width="50" height="50" relative="1" as="geometry">
            <mxPoint x="730" y="480" as="sourcePoint" />
            <mxPoint x="780" y="500" as="targetPoint" />
          </mxGeometry>
        </mxCell>
        <mxCell id="dDA_K_qWxvXukU3VSu6O-24" value="After Migration" style="text;html=1;align=center;verticalAlign=middle;whiteSpace=wrap;rounded=0;" vertex="1" parent="1">
          <mxGeometry x="290" y="802" width="60" height="30" as="geometry" />
        </mxCell>
        <mxCell id="dDA_K_qWxvXukU3VSu6O-25" value="GCP" style="text;html=1;align=center;verticalAlign=middle;whiteSpace=wrap;rounded=0;fontSize=24;" vertex="1" parent="1">
          <mxGeometry x="102" y="390" width="60" height="30" as="geometry" />
        </mxCell>
        <mxCell id="dDA_K_qWxvXukU3VSu6O-26" value="Internet&lt;div&gt;Router&lt;/div&gt;&lt;div&gt;&lt;br&gt;&lt;/div&gt;" style="text;html=1;align=center;verticalAlign=middle;whiteSpace=wrap;rounded=0;" vertex="1" parent="1">
          <mxGeometry x="381" y="734" width="60" height="30" as="geometry" />
        </mxCell>
        <mxCell id="dDA_K_qWxvXukU3VSu6O-27" value="DNS&lt;div&gt;Lookup&lt;/div&gt;" style="text;html=1;align=center;verticalAlign=middle;whiteSpace=wrap;rounded=0;" vertex="1" parent="1">
          <mxGeometry x="585" y="550" width="60" height="30" as="geometry" />
        </mxCell>
        <mxCell id="dDA_K_qWxvXukU3VSu6O-28" value="Migration&amp;nbsp; &amp;nbsp; Path" style="text;html=1;align=center;verticalAlign=middle;whiteSpace=wrap;rounded=0;" vertex="1" parent="1">
          <mxGeometry x="7" y="330" width="250" height="30" as="geometry" />
        </mxCell>
        <mxCell id="dDA_K_qWxvXukU3VSu6O-29" value="Users" style="text;html=1;align=center;verticalAlign=middle;whiteSpace=wrap;rounded=0;" vertex="1" parent="1">
          <mxGeometry x="655" y="620" width="60" height="30" as="geometry" />
        </mxCell>
        <mxCell id="dDA_K_qWxvXukU3VSu6O-31" value="Web Server Migration with DNS Cloud" style="text;html=1;align=center;verticalAlign=middle;whiteSpace=wrap;rounded=0;fontSize=24;fontStyle=1" vertex="1" parent="1">
          <mxGeometry x="183" y="50" width="485" height="30" as="geometry" />
        </mxCell>
      </root>
    </mxGraphModel>
  </diagram>
</mxfile>
